<svg width="187" height="54" viewBox="0 0 187 54" fill="none" xmlns="http://www.w3.org/2000/svg">
<path d="M185.961 47.7724C185.961 50.6502 183.581 52.9812 180.636 52.9812H6.3709C3.4278 52.9812 1.03888 50.6502 1.03888 47.7724V6.23446C1.03888 3.35809 3.4278 1.01892 6.3709 1.01892H180.635C183.581 1.01892 185.96 3.35809 185.96 6.23446L185.961 47.7724Z" fill="white"/>
<path d="M180.074 1.08169C183.281 1.08169 185.89 3.62476 185.89 6.75001V47.25C185.89 50.3753 183.281 52.9183 180.074 52.9183H6.92593C3.71922 52.9183 1.10988 50.3753 1.10988 47.25V6.75001C1.10988 3.62476 3.71922 1.08169 6.92593 1.08169H180.074ZM180.074 7.62939e-06H6.92593C3.1184 7.62939e-06 0 3.0392 0 6.75001V47.25C0 50.9608 3.1184 54 6.92593 54H180.074C183.882 54 187 50.9608 187 47.25V6.75001C187 3.0392 183.882 7.62939e-06 180.074 7.62939e-06Z" fill="#A6A6A6"/>
<path d="M41.7329 26.7084C41.6927 22.3573 45.3884 20.2405 45.5574 20.142C43.4644 17.1679 40.2203 16.7616 39.0803 16.7292C36.3556 16.4497 33.7127 18.3181 32.3247 18.3181C30.909 18.3181 28.7717 16.7562 26.4681 16.8021C23.5038 16.8466 20.7307 18.5193 19.2098 21.1167C16.0709 26.4127 18.4119 34.1955 21.4191 38.4763C22.9235 40.5729 24.6813 42.9138 26.982 42.8314C29.233 42.741 30.0738 41.4328 32.7901 41.4328C35.4815 41.4328 36.2711 42.8314 38.6176 42.7788C41.0334 42.741 42.5543 40.6728 44.006 38.5573C45.7444 36.1543 46.4425 33.7878 46.4702 33.6663C46.4134 33.6474 41.7786 31.9234 41.7329 26.7084Z" fill="black"/>
<path d="M37.3003 13.9131C38.5109 12.4375 39.3393 10.4301 39.1093 8.39294C37.3571 8.46854 35.1657 9.57419 33.9038 11.0173C32.7874 12.289 31.79 14.3734 32.0477 16.3336C34.016 16.4767 36.037 15.3657 37.3003 13.9131Z" fill="black"/>
<path d="M67.6261 13.3133C67.6261 14.8345 67.158 15.9796 66.2231 16.7487C65.3571 17.4582 64.1264 17.8137 62.5324 17.8137C61.742 17.8137 61.0657 17.7801 60.4994 17.7128V9.40099C61.2381 9.28467 62.0337 9.22522 62.8931 9.22522C64.4115 9.22522 65.556 9.54704 66.3278 10.1907C67.1925 10.9183 67.6261 11.9588 67.6261 13.3133ZM66.1607 13.3508C66.1607 12.3646 65.8929 11.6085 65.3571 11.0812C64.8213 10.5552 64.0389 10.2915 63.0085 10.2915C62.5708 10.2915 62.1982 10.3199 61.8892 10.3794V16.6983C62.0603 16.7241 62.3732 16.7357 62.8281 16.7357C63.8917 16.7357 64.7126 16.4475 65.2908 15.8711C65.869 15.2946 66.1607 14.4545 66.1607 13.3508Z" fill="black"/>
<path d="M75.3961 14.6422C75.3961 15.5793 75.1216 16.347 74.5726 16.9493C73.997 17.5684 73.2345 17.8773 72.2823 17.8773C71.3646 17.8773 70.6339 17.5813 70.0888 16.9868C69.5451 16.3935 69.2733 15.6452 69.2733 14.743C69.2733 13.7995 69.5531 13.0254 70.1154 12.4244C70.6776 11.8234 71.4336 11.5222 72.3857 11.5222C73.3034 11.5222 74.0408 11.8182 74.5991 12.4114C75.1295 12.9879 75.3961 13.7323 75.3961 14.6422ZM73.9546 14.6862C73.9546 14.124 73.8299 13.6419 73.5819 13.2399C73.2902 12.7539 72.8751 12.511 72.3353 12.511C71.777 12.511 71.3527 12.7539 71.0609 13.2399C70.8116 13.6419 70.6883 14.1317 70.6883 14.7107C70.6883 15.273 70.8129 15.755 71.0609 16.157C71.3619 16.643 71.781 16.8859 72.3221 16.8859C72.8525 16.8859 73.269 16.6391 73.5687 16.1441C73.8259 15.7344 73.9546 15.2484 73.9546 14.6862Z" fill="black"/>
<path d="M85.8142 11.6462L83.8581 17.7389H82.585L81.7747 15.0932C81.5692 14.4328 81.4021 13.7762 81.2721 13.1248H81.2469C81.1263 13.7943 80.9592 14.4496 80.7443 15.0932L79.8837 17.7389H78.596L76.7566 11.6462H78.1849L78.8917 14.5427C79.0628 15.2277 79.2033 15.8804 79.3161 16.4982H79.3413C79.4447 15.9889 79.6158 15.3401 79.8571 14.5556L80.7443 11.6475H81.8769L82.7269 14.4935C82.9325 15.1876 83.0996 15.8558 83.2282 16.4994H83.2667C83.3608 15.8726 83.5027 15.2044 83.691 14.4935L84.4496 11.6475H85.8142V11.6462Z" fill="black"/>
<path d="M93.0192 17.7391H91.6294V14.2494C91.6294 13.1741 91.2103 12.6364 90.3695 12.6364C89.9571 12.6364 89.6242 12.7838 89.3656 13.0797C89.1097 13.3757 88.9797 13.7247 88.9797 14.124V17.7378H87.5899V13.3873C87.5899 12.8523 87.5727 12.2719 87.5395 11.6438H88.7609L88.8259 12.5963H88.8643C89.0261 12.3004 89.2675 12.0561 89.5844 11.8609C89.9611 11.6335 90.3828 11.5184 90.8443 11.5184C91.4278 11.5184 91.9132 11.702 92.2991 12.0703C92.7791 12.5214 93.0192 13.1948 93.0192 14.0891V17.7391Z" fill="black"/>
<path d="M96.8519 17.7389H95.4634V8.85059H96.8519V17.7389Z" fill="black"/>
<path d="M105.034 14.6422C105.034 15.5793 104.76 16.347 104.211 16.9493C103.635 17.5684 102.871 17.8773 101.92 17.8773C101.001 17.8773 100.271 17.5813 99.7269 16.9868C99.1831 16.3935 98.9113 15.6452 98.9113 14.743C98.9113 13.7995 99.1911 13.0254 99.7534 12.4244C100.316 11.8234 101.072 11.5222 102.022 11.5222C102.941 11.5222 103.677 11.8182 104.237 12.4114C104.768 12.9879 105.034 13.7323 105.034 14.6422ZM103.591 14.6862C103.591 14.124 103.467 13.6419 103.219 13.2399C102.928 12.7539 102.512 12.511 101.973 12.511C101.414 12.511 100.989 12.7539 100.699 13.2399C100.45 13.6419 100.326 14.1317 100.326 14.7107C100.326 15.273 100.451 15.755 100.699 16.157C101 16.643 101.419 16.8859 101.96 16.8859C102.491 16.8859 102.906 16.6391 103.205 16.1441C103.464 15.7344 103.591 15.2484 103.591 14.6862Z" fill="black"/>
<path d="M111.761 17.739H110.513L110.409 17.0372H110.371C109.944 17.5968 109.335 17.8773 108.545 17.8773C107.955 17.8773 107.477 17.6924 107.118 17.3254C106.792 16.9919 106.628 16.577 106.628 16.0846C106.628 15.3402 106.947 14.7728 107.587 14.3799C108.226 13.9869 109.126 13.7944 110.283 13.8034V13.6897C110.283 12.8871 109.851 12.4864 108.985 12.4864C108.368 12.4864 107.825 12.6376 107.355 12.9375L107.073 12.0482C107.654 11.698 108.371 11.5222 109.217 11.5222C110.851 11.5222 111.67 12.3623 111.67 14.0425V16.2862C111.67 16.895 111.701 17.3797 111.761 17.739ZM110.318 15.6452V14.7056C108.785 14.6797 108.018 15.0894 108.018 15.9334C108.018 16.2513 108.106 16.4892 108.285 16.6481C108.464 16.8071 108.692 16.8859 108.964 16.8859C109.269 16.8859 109.554 16.7916 109.814 16.6042C110.075 16.4155 110.236 16.1764 110.295 15.883C110.31 15.8171 110.318 15.7369 110.318 15.6452Z" fill="black"/>
<path d="M119.658 17.7389H118.424L118.359 16.7605H118.321C117.927 17.5049 117.256 17.8772 116.313 17.8772C115.56 17.8772 114.933 17.5889 114.435 17.0125C113.938 16.4361 113.69 15.6877 113.69 14.7688C113.69 13.7826 113.959 12.9839 114.5 12.3738C115.024 11.8052 115.666 11.5208 116.43 11.5208C117.269 11.5208 117.857 11.7961 118.191 12.348H118.217V8.85059H119.609V16.0974C119.609 16.6907 119.625 17.2374 119.658 17.7389ZM118.217 15.1695V14.1536C118.217 13.9778 118.204 13.8356 118.179 13.7271C118.101 13.4014 117.932 13.1274 117.676 12.9063C117.418 12.6853 117.106 12.5742 116.747 12.5742C116.228 12.5742 115.822 12.7745 115.524 13.1765C115.228 13.5784 115.078 14.0915 115.078 14.7184C115.078 15.3207 115.22 15.8092 115.505 16.1853C115.807 16.586 116.212 16.7863 116.72 16.7863C117.176 16.7863 117.541 16.6196 117.818 16.2848C118.086 15.9759 118.217 15.6037 118.217 15.1695Z" fill="black"/>
<path d="M131.544 14.6422C131.544 15.5793 131.269 16.347 130.72 16.9493C130.145 17.5684 129.384 17.8773 128.43 17.8773C127.514 17.8773 126.783 17.5813 126.237 16.9868C125.693 16.3935 125.421 15.6452 125.421 14.743C125.421 13.7995 125.701 13.0254 126.263 12.4244C126.826 11.8234 127.581 11.5222 128.535 11.5222C129.451 11.5222 130.19 11.8182 130.747 12.4114C131.277 12.9879 131.544 13.7323 131.544 14.6422ZM130.104 14.6862C130.104 14.124 129.979 13.6419 129.731 13.2399C129.438 12.7539 129.024 12.511 128.483 12.511C127.926 12.511 127.502 12.7539 127.209 13.2399C126.959 13.6419 126.836 14.1317 126.836 14.7107C126.836 15.273 126.961 15.755 127.209 16.157C127.51 16.643 127.929 16.8859 128.47 16.8859C129 16.8859 129.418 16.6391 129.718 16.1441C129.974 15.7344 130.104 15.2484 130.104 14.6862Z" fill="black"/>
<path d="M139.017 17.7391H137.628V14.2494C137.628 13.1741 137.209 12.6364 136.367 12.6364C135.955 12.6364 135.622 12.7838 135.365 13.0797C135.107 13.3757 134.979 13.7247 134.979 14.124V17.7378H133.588V13.3873C133.588 12.8523 133.572 12.2719 133.539 11.6438H134.759L134.824 12.5963H134.862C135.025 12.3004 135.267 12.0561 135.582 11.8609C135.96 11.6335 136.381 11.5184 136.843 11.5184C137.426 11.5184 137.911 11.702 138.297 12.0703C138.778 12.5214 139.017 13.1948 139.017 14.0891V17.7391Z" fill="black"/>
<path d="M148.37 12.661H146.84V15.6207C146.84 16.3729 147.112 16.749 147.65 16.749C147.899 16.749 148.106 16.7284 148.269 16.6857L148.305 17.7132C148.031 17.814 147.67 17.8644 147.226 17.8644C146.677 17.8644 146.25 17.7016 145.941 17.3759C145.63 17.0502 145.477 16.5022 145.477 15.7332V12.661H144.563V11.6464H145.477V10.5297L146.839 10.129V11.6451H148.369V12.661H148.37Z" fill="black"/>
<path d="M155.728 17.7389H154.337V14.2751C154.337 13.1829 153.918 12.6362 153.078 12.6362C152.434 12.6362 151.993 12.9529 151.752 13.5862C151.711 13.7193 151.687 13.8822 151.687 14.0734V17.7376H150.299V8.85059H151.687V12.5225H151.714C152.151 11.8543 152.779 11.5208 153.591 11.5208C154.167 11.5208 154.643 11.7043 155.021 12.0727C155.492 12.5315 155.728 13.214 155.728 14.1161V17.7389Z" fill="black"/>
<path d="M163.317 14.4043C163.317 14.6473 163.299 14.8515 163.265 15.0182H159.097C159.116 15.6205 159.315 16.0794 159.701 16.3973C160.054 16.6817 160.508 16.8238 161.065 16.8238C161.682 16.8238 162.244 16.7282 162.751 16.5356L162.968 17.4765C162.376 17.7273 161.678 17.8526 160.87 17.8526C159.902 17.8526 159.14 17.5747 158.588 17.019C158.034 16.4632 157.759 15.7175 157.759 14.7817C157.759 13.8628 158.015 13.0976 158.531 12.4876C159.07 11.8362 159.798 11.5105 160.717 11.5105C161.616 11.5105 162.299 11.8362 162.76 12.4876C163.133 13.0046 163.317 13.6444 163.317 14.4043ZM161.991 14.0541C162.002 13.6521 161.91 13.3057 161.722 13.0136C161.48 12.6375 161.113 12.4488 160.616 12.4488C160.162 12.4488 159.792 12.6324 159.51 13.0007C159.279 13.2941 159.142 13.6444 159.097 14.0541H161.991Z" fill="black"/>
<path d="M74.1365 42.2477H71.0255L69.3214 37.0525H63.3979L61.7746 42.2477H58.7457L64.6144 24.5607H68.2391L74.1365 42.2477ZM68.8076 34.8728L67.2665 30.2543C67.1035 29.7825 66.798 28.6714 66.3473 26.9224H66.2925C66.113 27.6746 65.824 28.7857 65.4267 30.2543L63.913 34.8728H68.8076Z" fill="black"/>
<path d="M89.2288 35.7139C89.2288 37.8829 88.6246 39.5974 87.4164 40.856C86.3342 41.9764 84.9903 42.5359 83.3861 42.5359C81.6546 42.5359 80.4107 41.9325 79.6532 40.7257H79.5984V47.4441H76.6777V33.6924C76.6777 32.3288 76.6408 30.9293 76.5695 29.4939H79.1381L79.3011 31.5154H79.3559C80.3299 29.9923 81.808 29.2321 83.7916 29.2321C85.3424 29.2321 86.6369 29.8261 87.6725 31.0156C88.7109 32.2065 89.2288 33.7721 89.2288 35.7139ZM86.2533 35.8175C86.2533 34.5762 85.9657 33.5528 85.3876 32.7474C84.756 31.9074 83.9081 31.4875 82.845 31.4875C82.1245 31.4875 81.4696 31.7214 80.8847 32.1826C80.2984 32.6477 79.9148 33.2551 79.7354 34.0074C79.6449 34.3582 79.5997 34.6453 79.5997 34.8712V36.9977C79.5997 37.9254 79.8929 38.7082 80.4792 39.3475C81.0655 39.9868 81.8272 40.3058 82.7642 40.3058C83.8642 40.3058 84.7204 39.8937 85.3328 39.0724C85.9465 38.2497 86.2533 37.1652 86.2533 35.8175Z" fill="black"/>
<path d="M104.348 35.7139C104.348 37.8829 103.744 39.5974 102.535 40.856C101.454 41.9764 100.11 42.5359 98.5056 42.5359C96.7741 42.5359 95.5302 41.9325 94.774 40.7257H94.7192V47.4441H91.7986V33.6924C91.7986 32.3288 91.7616 30.9293 91.6904 29.4939H94.259L94.422 31.5154H94.4768C95.4494 29.9923 96.9275 29.2321 98.9125 29.2321C100.462 29.2321 101.756 29.8261 102.795 31.0156C103.829 32.2065 104.348 33.7721 104.348 35.7139ZM101.373 35.8175C101.373 34.5762 101.084 33.5528 100.506 32.7474C99.8742 31.9074 99.029 31.4875 97.9645 31.4875C97.2426 31.4875 96.5892 31.7214 96.0028 32.1826C95.4165 32.6477 95.0343 33.2551 94.8549 34.0074C94.7658 34.3582 94.7192 34.6453 94.7192 34.8712V36.9977C94.7192 37.9254 95.0124 38.7082 95.596 39.3475C96.1823 39.9855 96.944 40.3058 97.8837 40.3058C98.9837 40.3058 99.8399 39.8937 100.452 39.0724C101.066 38.2497 101.373 37.1652 101.373 35.8175Z" fill="black"/>
<path d="M121.253 37.2876C121.253 38.7921 120.714 40.0161 119.634 40.9611C118.446 41.9938 116.792 42.5095 114.668 42.5095C112.706 42.5095 111.133 42.1426 109.943 41.4077L110.62 39.0459C111.902 39.7982 113.309 40.1756 114.842 40.1756C115.942 40.1756 116.798 39.9337 117.413 39.4526C118.025 38.9715 118.331 38.3256 118.331 37.5202C118.331 36.8025 118.079 36.1978 117.573 35.7074C117.07 35.2169 116.231 34.7611 115.058 34.3398C111.866 33.1848 110.272 31.4929 110.272 29.2681C110.272 27.8141 110.831 26.6219 111.95 25.6942C113.065 24.7652 114.553 24.3014 116.413 24.3014C118.072 24.3014 119.45 24.5818 120.55 25.1414L119.82 27.4513C118.792 26.909 117.631 26.6379 116.331 26.6379C115.303 26.6379 114.5 26.8837 113.925 27.3728C113.439 27.8101 113.195 28.3431 113.195 28.9744C113.195 29.6734 113.473 30.2516 114.032 30.7061C114.518 31.1261 115.402 31.5806 116.684 32.0711C118.253 32.6837 119.405 33.4001 120.146 34.2215C120.884 35.0402 121.253 36.0649 121.253 37.2876Z" fill="black"/>
<path d="M130.909 31.6205H127.69V37.8126C127.69 39.3876 128.257 40.1744 129.394 40.1744C129.916 40.1744 130.349 40.1305 130.691 40.0428L130.772 42.1945C130.197 42.4032 129.439 42.5082 128.501 42.5082C127.347 42.5082 126.446 42.1666 125.795 41.4848C125.147 40.8017 124.821 39.656 124.821 38.0465V31.6179H122.903V29.4914H124.821V27.1562L127.69 26.3163V29.4914H130.909V31.6205Z" fill="black"/>
<path d="M145.434 35.7656C145.434 37.7259 144.856 39.3354 143.703 40.594C142.493 41.8899 140.888 42.5358 138.886 42.5358C136.957 42.5358 135.422 41.9151 134.276 40.6738C133.131 39.4325 132.559 37.8655 132.559 35.9769C132.559 34.0006 133.148 32.3818 134.33 31.1232C135.509 29.8633 137.101 29.2333 139.103 29.2333C141.031 29.2333 142.584 29.8539 143.755 31.0966C144.875 32.3021 145.434 33.8584 145.434 35.7656ZM142.404 35.8573C142.404 34.6811 142.145 33.6723 141.62 32.831C141.008 31.813 140.133 31.3053 138.999 31.3053C137.825 31.3053 136.933 31.8143 136.32 32.831C135.796 33.6737 135.537 34.6984 135.537 35.9105C135.537 37.0867 135.796 38.0954 136.32 38.9354C136.952 39.9534 137.834 40.4611 138.972 40.4611C140.088 40.4611 140.963 39.9428 141.594 38.9088C142.133 38.0516 142.404 37.0322 142.404 35.8573Z" fill="black"/>
<path d="M154.928 31.9859C154.639 31.934 154.33 31.9074 154.007 31.9074C152.98 31.9074 152.185 32.2836 151.626 33.0371C151.14 33.7017 150.896 34.5416 150.896 35.5557V42.2475H147.977L148.004 33.5103C148.004 32.0404 147.967 30.702 147.895 29.4952H150.438L150.545 31.9354H150.626C150.934 31.0967 151.421 30.4216 152.086 29.9152C152.737 29.4593 153.44 29.2321 154.197 29.2321C154.467 29.2321 154.711 29.2507 154.928 29.2839V31.9859Z" fill="black"/>
<path d="M167.989 35.2677C167.989 35.7754 167.955 36.2033 167.883 36.5529H159.121C159.155 37.8128 159.578 38.7764 160.392 39.4409C161.13 40.035 162.085 40.3327 163.258 40.3327C164.555 40.3327 165.739 40.132 166.803 39.7293L167.261 41.6963C166.017 42.2226 164.548 42.4844 162.854 42.4844C160.815 42.4844 159.215 41.9023 158.051 40.7394C156.889 39.5765 156.307 38.0148 156.307 36.0558C156.307 34.1326 156.848 32.5311 157.932 31.2539C159.066 29.8903 160.599 29.2085 162.528 29.2085C164.422 29.2085 165.857 29.8903 166.831 31.2539C167.602 32.3371 167.989 33.6768 167.989 35.2677ZM165.204 34.5327C165.224 33.6927 165.033 32.9671 164.637 32.3544C164.132 31.5662 163.355 31.1728 162.31 31.1728C161.355 31.1728 160.578 31.5569 159.985 32.3278C159.499 32.9405 159.21 33.6755 159.121 34.5314H165.204V34.5327Z" fill="black"/>
</svg>
