<svg width="31" height="32" viewBox="0 0 31 32" fill="none" xmlns="http://www.w3.org/2000/svg">
<path d="M2.37168 1.45085L0.57251 3.25002L6.08334 8.76085V28.75C6.08334 29.5015 6.38185 30.2221 6.91321 30.7535C7.44456 31.2848 8.16523 31.5834 8.91668 31.5834H23.0833C23.8348 31.5834 24.5555 31.2848 25.0868 30.7535C25.6182 30.2221 25.9167 29.5015 25.9167 28.75V28.5942L28.5233 31.2009L30.3225 29.4017M23.0833 25.9167H8.91668V11.5942L23.0833 25.7609V25.9167ZM23.0833 6.08335V18.55L25.9167 21.3834V3.25002C25.9167 2.49857 25.6182 1.7779 25.0868 1.24655C24.5555 0.715198 23.8348 0.416687 23.0833 0.416687H8.91668C7.89668 0.416687 6.93334 0.940854 6.42334 1.83335L10.6733 6.08335H23.0833Z" fill="#6B677B"/>
</svg>
