<svg width="44" height="44" viewBox="0 0 44 44" fill="none" xmlns="http://www.w3.org/2000/svg">
<path d="M21.9993 3.66663C19.5918 3.66663 17.2078 4.14083 14.9835 5.06217C12.7592 5.9835 10.7381 7.33393 9.03572 9.03633C5.59756 12.4745 3.66602 17.1377 3.66602 22C3.66602 26.8623 5.59756 31.5254 9.03572 34.9636C10.7381 36.666 12.7592 38.0164 14.9835 38.9378C17.2078 39.8591 19.5918 40.3333 21.9993 40.3333C26.8617 40.3333 31.5248 38.4018 34.963 34.9636C38.4011 31.5254 40.3327 26.8623 40.3327 22C40.3327 19.8733 39.9477 17.765 39.2143 15.785L36.281 18.7183C36.5377 19.8 36.666 20.9 36.666 22C36.666 25.8898 35.1208 29.6203 32.3702 32.3709C29.6197 35.1214 25.8892 36.6666 21.9993 36.6666C18.1095 36.6666 14.379 35.1214 11.6284 32.3709C8.87792 29.6203 7.33268 25.8898 7.33268 22C7.33268 18.1101 8.87792 14.3796 11.6284 11.6291C14.379 8.87853 18.1095 7.33329 21.9993 7.33329C23.0993 7.33329 24.1993 7.46163 25.281 7.71829L28.2327 4.76663C26.2343 4.05163 24.126 3.66663 21.9993 3.66663ZM34.8327 3.66663L27.4993 11V13.75L22.8243 18.425C22.5493 18.3333 22.2743 18.3333 21.9993 18.3333C21.0269 18.3333 20.0943 18.7196 19.4066 19.4072C18.719 20.0949 18.3327 21.0275 18.3327 22C18.3327 22.9724 18.719 23.9051 19.4066 24.5927C20.0943 25.2803 21.0269 25.6666 21.9993 25.6666C22.9718 25.6666 23.9044 25.2803 24.5921 24.5927C25.2797 23.9051 25.666 22.9724 25.666 22C25.666 21.725 25.666 21.45 25.5743 21.175L30.2493 16.5H32.9993L40.3327 9.16663H34.8327V3.66663ZM21.9993 11C19.082 11 16.2841 12.1589 14.2212 14.2218C12.1583 16.2847 10.9993 19.0826 10.9993 22C10.9993 24.9173 12.1583 27.7152 14.2212 29.7781C16.2841 31.841 19.082 33 21.9993 33C24.9167 33 27.7146 31.841 29.7775 29.7781C31.8404 27.7152 32.9993 24.9173 32.9993 22H29.3327C29.3327 23.9449 28.5601 25.8101 27.1848 27.1854C25.8095 28.5607 23.9443 29.3333 21.9993 29.3333C20.0544 29.3333 18.1892 28.5607 16.8139 27.1854C15.4386 25.8101 14.666 23.9449 14.666 22C14.666 20.055 15.4386 18.1898 16.8139 16.8145C18.1892 15.4392 20.0544 14.6666 21.9993 14.6666V11Z" fill="black"/>
</svg>
