<svg width="167" height="53" viewBox="0 0 167 53" fill="none" xmlns="http://www.w3.org/2000/svg">
<path d="M0.000244141 8.85327H14.5238L19.5061 36.8814H21.1222L26.4856 8.85327H43.2393L48.6027 36.8814H49.8377L54.9117 8.85327H69.5835L60.8962 51.6661H40.6281L35.173 23.638H34.2203L29.0474 51.6661H8.82871L0.000244141 8.85327Z" fill="white"/>
<path d="M136.048 40.5112V19.9411H147.439V8.78514H136.048V0H121.885V8.78514H116.613V19.9411H121.885V40.5112V51.598H136.048H148.292V40.5112H136.048Z" fill="white"/>
<path d="M158.687 52.8489C162.853 52.8489 166.231 49.5407 166.231 45.46C166.231 41.3792 162.853 38.071 158.687 38.071C154.52 38.071 151.143 41.3792 151.143 45.46C151.143 49.5407 154.52 52.8489 158.687 52.8489Z" fill="white"/>
<path d="M92.9801 7.74048C79.5716 7.74048 68.7036 17.8665 68.7036 30.3703C68.7036 42.8672 79.5716 53.0002 92.9801 53.0002C106.389 53.0002 117.257 42.8672 117.257 30.3703C117.257 17.8665 106.389 7.74048 92.9801 7.74048ZM93.1001 41.0632C87.6802 41.0632 83.2836 36.3008 83.2836 30.4325C83.2836 24.5573 87.6802 19.8019 93.1001 19.8019C98.527 19.8019 102.917 24.5643 102.917 30.4325C102.917 36.3077 98.52 41.0632 93.1001 41.0632Z" fill="white"/>
</svg>
