<svg width="44" height="44" viewBox="0 0 44 44" fill="none" xmlns="http://www.w3.org/2000/svg">
<path d="M36.6654 22V40.3333H7.33203V22" stroke="black" stroke-width="3.83333" stroke-linecap="round" stroke-linejoin="round"/>
<path d="M40.3346 12.8333H3.66797V21.9999H40.3346V12.8333Z" stroke="black" stroke-width="3.83333" stroke-linecap="round" stroke-linejoin="round"/>
<path d="M22 40.3333V12.8333" stroke="black" stroke-width="3.83333" stroke-linecap="round" stroke-linejoin="round"/>
<path d="M22.0013 12.8334H13.7513C12.5357 12.8334 11.3699 12.3505 10.5104 11.491C9.65085 10.6314 9.16797 9.46566 9.16797 8.25008C9.16797 7.03451 9.65085 5.86872 10.5104 5.00918C11.3699 4.14963 12.5357 3.66675 13.7513 3.66675C20.168 3.66675 22.0013 12.8334 22.0013 12.8334Z" stroke="black" stroke-width="3.83333" stroke-linecap="round" stroke-linejoin="round"/>
<path d="M22 12.8334H30.25C31.4656 12.8334 32.6314 12.3505 33.4909 11.491C34.3504 10.6314 34.8333 9.46566 34.8333 8.25008C34.8333 7.03451 34.3504 5.86872 33.4909 5.00918C32.6314 4.14963 31.4656 3.66675 30.25 3.66675C23.8333 3.66675 22 12.8334 22 12.8334Z" stroke="black" stroke-width="3.83333" stroke-linecap="round" stroke-linejoin="round"/>
</svg>
