<svg width="187" height="54" viewBox="0 0 187 54" fill="none" xmlns="http://www.w3.org/2000/svg">
<path d="M180.074 54H6.92593C3.1184 54 0 50.9608 0 47.25V6.75001C0 3.0392 3.1184 8.58307e-06 6.92593 8.58307e-06H180.074C183.882 8.58307e-06 187 3.0392 187 6.75001V47.25C187 50.9608 183.882 54 180.074 54Z" fill="white"/>
<path d="M180.074 1.08169C183.281 1.08169 185.89 3.62476 185.89 6.75001V47.25C185.89 50.3753 183.281 52.9183 180.074 52.9183H6.92593C3.71922 52.9183 1.10988 50.3753 1.10988 47.25V6.75001C1.10988 3.62476 3.71922 1.08169 6.92593 1.08169H180.074ZM180.074 8.58307e-06H6.92593C3.1184 8.58307e-06 0 3.0392 0 6.75001V47.25C0 50.9608 3.1184 54 6.92593 54H180.074C183.882 54 187 50.9608 187 47.25V6.75001C187 3.0392 183.882 8.58307e-06 180.074 8.58307e-06Z" fill="#A6A6A6"/>
<path d="M14.4573 10.1864C14.0485 10.6014 13.812 11.2476 13.812 12.0844V41.9321C13.812 42.7689 14.0485 43.415 14.4573 43.83L14.5582 43.9211L31.8011 27.2022V26.8075L14.5582 10.0885L14.4573 10.1864Z" fill="url(#paint0_linear_181_4067)"/>
<path d="M37.5426 32.7775L31.8013 27.2017V26.8069L37.5495 21.2311L37.6782 21.3037L44.4857 25.0608C46.4284 26.127 46.4284 27.8816 44.4857 28.9546L37.6782 32.7049L37.5426 32.7775Z" fill="url(#paint1_linear_181_4067)"/>
<path d="M37.6778 32.7052L31.8009 27.0045L14.457 43.8297C15.1023 44.4877 16.1545 44.567 17.3512 43.909L37.6778 32.7052Z" fill="url(#paint2_linear_181_4067)"/>
<path d="M37.6778 21.304L17.3512 10.1002C16.1545 9.44895 15.1023 9.52824 14.457 10.1862L31.8009 27.0046L37.6778 21.304Z" fill="url(#paint3_linear_181_4067)"/>
<path d="M66.21 13.5822C66.21 14.7807 65.842 15.7407 65.1169 16.4566C64.2832 17.3053 63.1975 17.7323 61.8669 17.7323C60.5953 17.7323 59.5095 17.2981 58.6188 16.4422C57.7263 15.5738 57.2809 14.508 57.2809 13.2323C57.2809 11.9566 57.7263 10.8908 58.6188 10.0295C59.5095 9.16651 60.5953 8.7323 61.8669 8.7323C62.5 8.7323 63.1036 8.85969 63.6796 9.09653C64.2538 9.33517 64.7212 9.65814 65.0598 10.0565L64.2906 10.8136C63.6999 10.1336 62.8957 9.79809 61.8669 9.79809C60.9394 9.79809 60.1352 10.1139 59.4525 10.7508C58.7771 11.3896 58.4385 12.2168 58.4385 13.2323C58.4385 14.2479 58.7771 15.0822 59.4525 15.7209C60.1352 16.3507 60.9394 16.6737 61.8669 16.6737C62.8515 16.6737 63.6796 16.3507 64.3329 15.7138C64.7636 15.2921 65.0083 14.7108 65.0727 13.9679H61.8669V12.9309H66.1438C66.1953 13.1551 66.21 13.3723 66.21 13.5822Z" fill="black" stroke="black" stroke-width="0.0862222" stroke-miterlimit="10"/>
<path d="M72.9949 9.98614H68.9776V12.7134H72.5993V13.7505H68.9776V16.4778H72.9949V17.5346H67.8403V8.92932H72.9949V9.98614Z" fill="black" stroke="black" stroke-width="0.0862222" stroke-miterlimit="10"/>
<path d="M77.7841 17.5346H76.6468V9.98614H74.1826V8.92932H80.25V9.98614H77.7841V17.5346Z" fill="black" stroke="black" stroke-width="0.0862222" stroke-miterlimit="10"/>
<path d="M84.6403 17.5346V8.92932H85.7762V17.5346H84.6403Z" fill="black" stroke="black" stroke-width="0.0862222" stroke-miterlimit="10"/>
<path d="M90.8089 17.5346H89.6809V9.98614H87.2075V8.92932H93.2823V9.98614H90.8089V17.5346Z" fill="black" stroke="black" stroke-width="0.0862222" stroke-miterlimit="10"/>
<path d="M104.77 16.4278C103.899 17.298 102.821 17.7322 101.535 17.7322C100.241 17.7322 99.1624 17.298 98.292 16.4278C97.4234 15.5593 96.9909 14.4935 96.9909 13.2322C96.9909 11.9708 97.4234 10.905 98.292 10.0366C99.1624 9.16639 100.241 8.73218 101.535 8.73218C102.814 8.73218 103.892 9.16639 104.762 10.0438C105.638 10.9194 106.071 11.978 106.071 13.2322C106.071 14.4935 105.638 15.5593 104.77 16.4278ZM99.133 15.7065C99.7881 16.3506 100.585 16.6736 101.535 16.6736C102.477 16.6736 103.281 16.3506 103.929 15.7065C104.582 15.0623 104.913 14.2352 104.913 13.2322C104.913 12.2292 104.582 11.402 103.929 10.7579C103.281 10.1138 102.477 9.79079 101.535 9.79079C100.585 9.79079 99.7881 10.1138 99.133 10.7579C98.4797 11.402 98.1484 12.2292 98.1484 13.2322C98.1484 14.2352 98.4797 15.0623 99.133 15.7065Z" fill="black" stroke="black" stroke-width="0.0862222" stroke-miterlimit="10"/>
<path d="M107.666 17.5346V8.92932H109.046L113.338 15.6219H113.387L113.338 13.9676V8.92932H114.473V17.5346H113.288L108.794 10.5119H108.744L108.794 12.1733V17.5346H107.666Z" fill="black" stroke="black" stroke-width="0.0862222" stroke-miterlimit="10"/>
<path d="M94.6369 29.2571C91.3611 29.2571 88.6851 31.686 88.6851 35.0373C88.6851 38.3614 91.3611 40.8158 94.6369 40.8158C97.9196 40.8158 100.596 38.3614 100.596 35.0373C100.596 31.686 97.9196 29.2571 94.6369 29.2571ZM94.6369 38.5397C92.8395 38.5397 91.2931 37.0942 91.2931 35.0373C91.2931 32.9532 92.8395 31.5332 94.6369 31.5332C96.4342 31.5332 97.9876 32.9532 97.9876 35.0373C97.9876 37.0942 96.4342 38.5397 94.6369 38.5397ZM81.6507 29.2571C78.368 29.2571 75.6989 31.686 75.6989 35.0373C75.6989 38.3614 78.368 40.8158 81.6507 40.8158C84.9317 40.8158 87.6025 38.3614 87.6025 35.0373C87.6025 31.686 84.9317 29.2571 81.6507 29.2571ZM81.6507 38.5397C79.8516 38.5397 78.3 37.0942 78.3 35.0373C78.3 32.9532 79.8516 31.5332 81.6507 31.5332C83.4481 31.5332 84.9944 32.9532 84.9944 35.0373C84.9944 37.0942 83.4481 38.5397 81.6507 38.5397ZM66.1977 31.0287V33.4848H72.2175C72.0414 34.8572 71.5707 35.8662 70.8489 36.5694C69.9703 37.4187 68.6018 38.3614 66.1977 38.3614C62.4931 38.3614 59.5922 35.4483 59.5922 31.8389C59.5922 28.2295 62.4931 25.3164 66.1977 25.3164C68.2008 25.3164 69.6582 26.0791 70.7339 27.0677L72.5103 25.3368C71.0058 23.9372 69.0045 22.862 66.1977 22.862C61.1176 22.862 56.8481 26.8893 56.8481 31.8389C56.8481 36.7885 61.1176 40.8158 66.1977 40.8158C68.9435 40.8158 71.0058 39.9393 72.6271 38.2951C74.2886 36.6764 74.8063 34.4003 74.8063 32.5625C74.8063 31.9918 74.7575 31.4669 74.6703 31.0287H66.1977ZM129.387 32.9328C128.897 31.6402 127.386 29.2571 124.307 29.2571C121.256 29.2571 118.716 31.5994 118.716 35.0373C118.716 38.2747 121.23 40.8158 124.6 40.8158C127.325 40.8158 128.897 39.1971 129.544 38.2544L127.522 36.9414C126.847 37.9028 125.928 38.5397 124.6 38.5397C123.28 38.5397 122.333 37.9503 121.727 36.7885L129.661 33.5901L129.387 32.9328ZM121.298 34.8572C121.23 32.6287 123.074 31.4873 124.396 31.4873C125.431 31.4873 126.31 31.9918 126.603 32.7137L121.298 34.8572ZM114.849 40.4642H117.457V23.4786H114.849V40.4642ZM110.578 30.5446H110.491C109.905 29.8686 108.788 29.2571 107.372 29.2571C104.401 29.2571 101.685 31.7981 101.685 35.056C101.685 38.2951 104.401 40.8158 107.372 40.8158C108.788 40.8158 109.905 40.1992 110.491 39.5028H110.578V40.3317C110.578 42.5415 109.366 43.7288 107.412 43.7288C105.819 43.7288 104.83 42.6078 104.422 41.6651L102.154 42.5874C102.808 44.1195 104.539 46.0049 107.412 46.0049C110.47 46.0049 113.05 44.252 113.05 39.9869V29.6087H110.578V30.5446ZM107.595 38.5397C105.798 38.5397 104.293 37.0739 104.293 35.056C104.293 33.0194 105.798 31.5332 107.595 31.5332C109.366 31.5332 110.763 33.0194 110.763 35.056C110.763 37.0739 109.366 38.5397 107.595 38.5397ZM141.597 23.4786H135.36V40.4642H137.961V34.0283H141.597C144.486 34.0283 147.319 31.9918 147.319 28.7526C147.319 25.5152 144.479 23.4786 141.597 23.4786ZM141.665 31.6657H137.961V25.8413H141.665C143.607 25.8413 144.716 27.4125 144.716 28.7526C144.716 30.0673 143.607 31.6657 141.665 31.6657ZM157.744 29.2248C155.865 29.2248 153.911 30.0333 153.107 31.8253L155.415 32.768C155.912 31.8253 156.825 31.5196 157.791 31.5196C159.141 31.5196 160.509 32.3094 160.53 33.7039V33.8823C160.059 33.6173 159.052 33.2249 157.812 33.2249C155.326 33.2249 152.793 34.5583 152.793 37.0467C152.793 39.3228 154.829 40.7886 157.118 40.7886C158.869 40.7886 159.834 40.0192 160.441 39.124H160.53V40.437H163.042V33.9213C163.042 30.9098 160.734 29.2248 157.744 29.2248ZM157.43 38.5329C156.58 38.5329 155.394 38.1219 155.394 37.0942C155.394 35.7796 156.872 35.2751 158.152 35.2751C159.297 35.2751 159.834 35.5214 160.53 35.8458C160.326 37.4187 158.937 38.5329 157.43 38.5329ZM172.195 29.5968L169.205 36.9601H169.116L166.025 29.5968H163.22L167.864 39.8867L165.214 45.6125H167.932L175.089 29.5968H172.195ZM148.749 40.4642H151.357V23.4786H148.749V40.4642Z" fill="black"/>
<defs>
<linearGradient id="paint0_linear_181_4067" x1="30.2702" y1="42.2429" x2="7.63015" y2="18.9026" gradientUnits="userSpaceOnUse">
<stop stop-color="#00A0FF"/>
<stop offset="0.0066" stop-color="#00A1FF"/>
<stop offset="0.2601" stop-color="#00BEFF"/>
<stop offset="0.5122" stop-color="#00D2FF"/>
<stop offset="0.7604" stop-color="#00DFFF"/>
<stop offset="1" stop-color="#00E3FF"/>
</linearGradient>
<linearGradient id="paint1_linear_181_4067" x1="47.0154" y1="27.0024" x2="13.3478" y2="27.0024" gradientUnits="userSpaceOnUse">
<stop stop-color="#FFE000"/>
<stop offset="0.4087" stop-color="#FFBD00"/>
<stop offset="0.7754" stop-color="#FFA500"/>
<stop offset="1" stop-color="#FF9C00"/>
</linearGradient>
<linearGradient id="paint2_linear_181_4067" x1="34.4821" y1="23.9056" x2="3.78043" y2="-7.74575" gradientUnits="userSpaceOnUse">
<stop stop-color="#FF3A44"/>
<stop offset="1" stop-color="#C31162"/>
</linearGradient>
<linearGradient id="paint3_linear_181_4067" x1="10.0912" y1="53.76" x2="23.8009" y2="39.6264" gradientUnits="userSpaceOnUse">
<stop stop-color="#32A071"/>
<stop offset="0.0685" stop-color="#2DA771"/>
<stop offset="0.4762" stop-color="#15CF74"/>
<stop offset="0.8009" stop-color="#06E775"/>
<stop offset="1" stop-color="#00F076"/>
</linearGradient>
</defs>
</svg>
