<svg width="42" height="29" viewBox="0 0 42 29" fill="none" xmlns="http://www.w3.org/2000/svg">
<path d="M7.63094 0.777743C6.8147 -0.0384996 5.48212 -0.0444771 4.75042 0.848345C1.78198 4.47049 0 9.10181 0 14.1468C0 19.1918 1.78198 23.8231 4.75042 27.4453C5.48212 28.3381 6.8147 28.3321 7.63094 27.5159C8.44918 26.6976 8.43477 25.3773 7.72293 24.465C5.50984 21.6286 4.2 18.0496 4.2 14.1468C4.2 10.2612 5.51009 6.67001 7.72358 3.82921C8.43481 2.91642 8.44918 1.59598 7.63094 0.777743ZM37.2496 0.848345C36.5179 -0.0444767 35.1853 -0.0384993 34.3691 0.777743C33.5508 1.59598 33.5652 2.91642 34.2764 3.82921C36.4899 6.67001 37.8 10.2612 37.8 14.1468C37.8 18.0496 36.4902 21.6286 34.2771 24.465C33.5652 25.3773 33.5508 26.6976 34.3691 27.5159C35.1853 28.3321 36.5179 28.3381 37.2496 27.4453C40.218 23.8231 42 19.1918 42 14.1468C42 9.10181 40.218 4.47049 37.2496 0.848345ZM13.5765 6.7233C12.7588 5.90565 11.4162 5.89753 10.7436 6.83812C9.26565 8.90489 8.4 11.4289 8.4 14.1468C8.4 16.8647 9.26565 19.3887 10.7436 21.4555C11.4162 22.3961 12.7588 22.388 13.5765 21.5703C14.3942 20.7526 14.366 19.4351 13.7752 18.4411C13.0305 17.1881 12.6 15.7201 12.6 14.1468C12.6 12.5736 13.0305 11.1055 13.7752 9.85249C14.366 8.85846 14.3942 7.54096 13.5765 6.7233ZM31.2564 6.83812C30.5838 5.89753 29.2412 5.90565 28.4235 6.7233C27.6058 7.54096 27.634 8.85846 28.2248 9.85249C28.9695 11.1055 29.4 12.5736 29.4 14.1468C29.4 15.7201 28.9695 17.1881 28.2248 18.4411C27.634 19.4351 27.6058 20.7526 28.4235 21.5703C29.2412 22.388 30.5838 22.3961 31.2564 21.4555C32.7343 19.3887 33.6 16.8647 33.6 14.1468C33.6 11.4289 32.7343 8.90489 31.2564 6.83812ZM21 9.9468C19.8861 9.9468 18.8178 10.3893 18.0302 11.177C17.2425 11.9646 16.8 13.0329 16.8 14.1468C16.8 15.2607 17.2425 16.329 18.0302 17.1167C18.8178 17.9043 19.8861 18.3468 21 18.3468C22.1139 18.3468 23.1822 17.9043 23.9698 17.1167C24.7575 16.329 25.2 15.2607 25.2 14.1468C25.2 13.0329 24.7575 11.9646 23.9698 11.177C23.1822 10.3893 22.1139 9.9468 21 9.9468Z" fill="#6B677B"/>
</svg>
