<svg width="31" height="29" viewBox="0 0 31 29" fill="none" xmlns="http://www.w3.org/2000/svg">
<path d="M23.195 14L25.085 12.11C25.745 11.45 26.585 11.09 27.5 11V9.5L18.5 0.5H3.5C1.835 0.5 0.5 1.835 0.5 3.5V24.5C0.5 26.15 1.835 27.5 3.5 27.5H12.5V24.695L12.695 24.5H3.5V3.5H14V14H23.195ZM17 2.75L25.25 11H17V2.75ZM24.695 16.745L27.755 19.805L18.56 29H15.5V25.94L24.695 16.745ZM30.275 17.285L28.805 18.755L25.745 15.695L27.215 14.225C27.5 13.925 27.995 13.925 28.295 14.225L30.275 16.205C30.575 16.505 30.575 17 30.275 17.285Z" fill="#6B677B"/>
</svg>
