<svg width="78" height="22" viewBox="0 0 78 22" fill="none" xmlns="http://www.w3.org/2000/svg">
<path d="M47.7546 0H40.6909C38.2037 0 36.2139 1.19457 34.7216 3.48416C33.9257 4.67873 33.3287 6.0724 33.0303 7.56561V0.298646H28.2548V16.1267C28.2548 16.5249 28.2548 16.8235 28.1553 16.9231C28.0558 17.0226 27.8569 17.1222 27.4589 17.2217C27.2599 17.2217 27.061 17.2217 26.9615 17.1222C26.7625 16.9231 26.5635 16.6244 26.464 16.1267L22.584 4.38009C22.186 2.88688 21.3901 1.79185 20.2957 1.09502C19.3008 0.398189 18.2065 0.099546 16.9131 0.099546C15.4208 0.099546 14.1274 0.497739 13.033 1.39367C11.8392 2.28959 11.2422 3.48416 11.2422 4.87783V16.2262C11.2422 16.5249 11.1427 16.8235 11.0433 17.0226C10.9438 17.2217 10.7448 17.3213 10.4463 17.3213C10.2473 17.3213 10.1479 17.2217 9.94888 17.1222C9.7499 16.9231 9.55093 16.6244 9.55093 16.2262L4.67597 0.398192H0L4.57649 16.2262C5.07393 18.1177 5.96933 19.6109 6.96422 20.6063C7.9591 21.5023 9.15297 22 10.4463 22C12.0381 22 13.3315 21.6018 14.4259 20.905C15.6197 20.1086 16.2167 18.914 16.2167 17.3213V5.97285C16.2167 5.57466 16.3162 5.37556 16.5151 5.07692C16.7141 4.87783 16.9131 4.77828 17.1121 4.77828C17.3111 4.77828 17.51 4.87783 17.6095 4.97738C17.8085 5.07692 17.908 5.27602 18.0075 5.57466L21.3901 17.2217C21.987 18.8145 22.7829 19.9095 23.6783 20.7059C24.6732 21.5023 25.8671 21.9005 27.2599 21.9005C28.8518 21.9005 30.1451 21.5023 31.14 20.8054C32.3339 20.0091 32.9308 18.8145 32.9308 17.2217V14.3348C33.2293 15.8281 33.8262 17.1222 34.5226 18.3167C36.0149 20.5068 38.0047 21.6018 40.4919 21.6018H47.7546C50.3413 21.6018 52.3311 20.5068 53.724 18.3167C55.0173 16.3258 55.7137 13.9367 55.7137 11.0498C55.7137 8.06335 55.0173 5.57466 53.724 3.48416C52.2316 1.19457 50.2418 0 47.7546 0ZM49.6449 14.9321C48.9485 16.2262 48.0531 16.9231 46.9587 16.9231H41.4868C40.3925 16.9231 39.3976 16.2262 38.8006 14.9321C38.2037 13.7376 37.9052 12.3439 37.9052 10.552C37.9052 8.85973 38.2037 7.56561 38.8006 6.37104C39.4971 5.17647 40.3925 4.47964 41.5863 4.47964H47.0582C48.2521 4.47964 49.1475 5.07692 49.8439 6.37104C50.4408 7.46607 50.7393 8.85973 50.7393 10.552C50.6398 12.2443 50.3413 13.7376 49.6449 14.9321Z" fill="black"/>
<path d="M69.6422 0H55.2163V4.57918H59.9918V21.6018H64.7672V4.57918H69.6422V0Z" fill="black"/>
<path d="M72.5274 16.9231H67.752V21.5023H72.5274V16.9231Z" fill="black"/>
<path d="M73.4236 3.28514V0.796448H72.4287V0.497803H74.7169V0.796448H73.7221V3.28514H73.4236Z" fill="black"/>
<path d="M75.1152 3.28514V0.497803H75.6127L76.4086 2.28966H76.6076L77.4035 0.497803H78.0004V3.28514H77.6025V0.895994L76.8065 2.68785H76.1101L75.3142 0.895994V3.28514H75.1152Z" fill="black"/>
</svg>
