<svg width="44" height="44" viewBox="0 0 44 44" fill="none" xmlns="http://www.w3.org/2000/svg">
<path d="M15.4999 39.6667V44.0001H11.1666V39.6667H15.4999ZM24.1666 39.6667V44.0001H19.8333V39.6667H24.1666ZM32.8332 39.6667V44.0001H28.4999V39.6667H32.8332ZM21.9999 24.5001H17.6666V20.1667H21.9999V24.5001ZM34.9999 24.5001H26.3333V20.1667H34.9999V24.5001ZM13.3333 15.8334H8.99992V11.5001H13.3333V15.8334ZM34.9999 15.8334H17.6666V11.5001H34.9999V15.8334ZM39.3332 35.3334H4.66658C3.51731 35.3334 2.41511 34.8769 1.60246 34.0642C0.789798 33.2515 0.333252 32.1494 0.333252 31.0001V5.00008C0.333252 3.85081 0.789798 2.74861 1.60246 1.93595C2.41511 1.12329 3.51731 0.666748 4.66658 0.666748H39.3332C40.4825 0.666748 41.5847 1.12329 42.3974 1.93595C43.21 2.74861 43.6666 3.85081 43.6666 5.00008V31.0001C43.6666 32.1494 43.21 33.2515 42.3974 34.0642C41.5847 34.8769 40.4825 35.3334 39.3332 35.3334ZM4.66658 5.00008V31.0001H39.3332V5.00008H4.66658Z" fill="#6B677B"/>
</svg>
