<svg width="44" height="44" viewBox="0 0 44 44" fill="none" xmlns="http://www.w3.org/2000/svg">
<path d="M27.6875 16.8126L16.3125 28.1876" stroke="black" stroke-width="2" stroke-linecap="round" stroke-linejoin="round"/>
<path d="M17.5312 20.0625C18.6531 20.0625 19.5625 19.1531 19.5625 18.0312C19.5625 16.9094 18.6531 16 17.5312 16C16.4094 16 15.5 16.9094 15.5 18.0312C15.5 19.1531 16.4094 20.0625 17.5312 20.0625Z" stroke="black" stroke-width="2" stroke-linecap="round" stroke-linejoin="round"/>
<path d="M26.4687 29C27.5906 29 28.5 28.0906 28.5 26.9687C28.5 25.8469 27.5906 24.9375 26.4687 24.9375C25.3469 24.9375 24.4375 25.8469 24.4375 26.9687C24.4375 28.0906 25.3469 29 26.4687 29Z" stroke="black" stroke-width="2" stroke-linecap="round" stroke-linejoin="round"/>
<path d="M35.5115 17.4753L35.4719 17.9036L35.7557 18.2269L39.1695 22.1164L35.7557 26.0058L35.4719 26.3291L35.5115 26.7575L35.9872 31.9063L30.9349 33.0539L30.5161 33.149L30.2967 33.5182L27.6522 37.9677L22.8946 35.9248L22.4986 35.7548L22.1031 35.9258L17.3467 37.9822L14.7033 33.5345L14.4839 33.1654L14.0651 33.0703L9.01256 31.9226L9.48851 26.7572L9.52797 26.329L9.2443 26.0058L5.82951 22.1152L9.24547 18.2092L9.52797 17.8862L9.48849 17.4589L9.01299 12.3124L14.0626 11.1794L14.4831 11.085L14.7033 10.7145L17.3478 6.26498L22.1054 8.30796L22.5 8.47739L22.8946 8.30796L27.6522 6.26498L30.2967 10.7146L30.5161 11.0837L30.9349 11.1788L35.9872 12.3264L35.5115 17.4753Z" stroke="black" stroke-width="2"/>
</svg>
