<svg width="39" height="38" viewBox="0 0 39 38" fill="none" xmlns="http://www.w3.org/2000/svg">
<path d="M27.7963 21.1766C28.7147 21.1766 29.4592 20.4321 29.4592 19.5137C29.4592 18.5953 28.7147 17.8508 27.7963 17.8508C26.8779 17.8508 26.1334 18.5953 26.1334 19.5137C26.1334 20.4321 26.8779 21.1766 27.7963 21.1766Z" fill="#FF1F00" fill-opacity="0.71" stroke="#FF1F00" stroke-opacity="0.71"/>
<path d="M24.4758 14.5248H14.4986C13.9998 14.5248 13.6672 14.8574 13.6672 15.3562C13.6672 15.855 13.9998 16.1876 14.4986 16.1876H24.4757C24.9746 16.1876 25.3071 15.855 25.3071 15.3562C25.3071 14.8574 24.9747 14.5248 24.4758 14.5248Z" fill="#FF1F00" fill-opacity="0.71" stroke="#FF1F00" stroke-opacity="0.71"/>
<path d="M35.2874 18.6823C34.7885 18.6823 34.3728 18.4329 34.1234 17.934C33.4583 16.6037 32.6269 15.3565 31.4629 14.1925L32.7101 9.78596C32.7932 9.53653 32.71 9.2871 32.5438 9.03766C32.3775 8.8714 32.1281 8.70506 31.8786 8.70506C29.6338 8.62189 27.8047 9.37019 26.3912 10.9499C25.7261 10.7005 24.9778 10.451 24.2295 10.2016C24.8115 9.28702 25.1441 8.20619 25.1441 7.04219C25.1441 3.79961 22.5666 1.22217 19.324 1.22217C16.0815 1.22217 13.504 3.79961 13.504 7.04219C13.504 10.2848 16.0815 12.8622 19.324 12.8622C20.7375 12.8622 21.9846 12.3633 22.9823 11.5319C24.0632 11.7814 25.3934 12.2802 26.2249 12.6959C26.5575 12.8622 26.9732 12.7791 27.2226 12.4465C28.1372 11.2825 29.218 10.6174 30.6315 10.4511L29.5506 14.2756C29.4675 14.6082 29.5506 14.9408 29.8001 15.107C30.9641 16.1879 31.8786 17.3519 32.4606 18.6821C32.9595 19.763 33.9572 20.345 35.1212 20.345C35.62 20.345 35.9526 20.6776 35.9526 21.1764V24.5021C35.9526 25.001 35.62 25.3335 35.1212 25.3335H33.7077C33.4583 25.3335 33.292 25.4167 33.1257 25.5829C32.7101 26.0818 32.3774 26.4143 31.9617 26.7469C31.546 27.1626 31.0472 27.5783 30.382 28.4098C29.1349 29.8232 28.4697 31.6524 28.4697 33.6478V34.4792C28.4697 34.9781 28.1371 35.3106 27.6383 35.3106H25.9755C25.4766 35.3106 25.1441 34.978 25.1441 34.4792V32.8995C25.1441 32.4006 24.8115 32.0681 24.3127 32.0681C23.8138 32.0681 23.4813 32.4007 23.4813 32.8995V34.4792C23.4813 35.8926 24.5621 36.9735 25.9755 36.9735H27.6383C29.0517 36.9735 30.1325 35.8926 30.1325 34.4792V33.6478C30.1325 32.0681 30.6314 30.5715 31.6291 29.4906C32.2942 28.7423 32.7099 28.3266 33.1256 27.9109C33.4582 27.6615 33.7076 27.329 34.0402 26.9964H35.2873C36.7008 26.9964 37.7816 25.9155 37.7816 24.5021V21.1764C37.7817 19.7631 36.7008 18.6823 35.2874 18.6823ZM19.4903 11.1995C17.1623 11.1995 15.3332 9.37034 15.3332 7.04233C15.3332 4.71432 17.1623 2.88518 19.4903 2.88518C21.8183 2.88518 23.6475 4.71432 23.6475 7.04233C23.6474 9.37034 21.8182 11.1995 19.4903 11.1995Z" fill="#FF1F00" fill-opacity="0.71" stroke="#FF1F00" stroke-opacity="0.71"/>
<path d="M21.3979 32.7331C18.9036 32.9825 16.2431 32.7331 13.915 31.9017C13.6656 31.8185 13.4162 31.8185 13.1667 31.9848C13.0005 32.1511 12.8341 32.4005 12.8341 32.65V34.4791C12.8341 34.978 12.5015 35.3105 12.0027 35.3105H10.3399C9.841 35.3105 9.50847 34.9779 9.50847 34.4791V32.5668C9.50847 30.8208 8.92651 29.0748 7.7625 27.6613C7.51307 27.4119 7.26363 27.0794 7.0142 26.8299C6.34906 26.0816 5.93336 25.4997 5.60076 24.8345C5.43449 24.2526 5.35133 23.6705 5.35133 22.8391C5.35133 18.4326 8.34447 14.4417 13.1667 12.4463C13.5824 12.28 13.8319 11.7811 13.5824 11.3654C13.4162 10.9497 12.9173 10.7003 12.5016 10.9497C7.4299 13.0283 4.18739 17.1854 3.68853 21.8414C3.18966 21.592 2.77396 21.01 2.77396 20.3449C2.77396 19.846 2.44135 19.5135 1.94256 19.5135C1.44376 19.5135 1.11108 19.846 1.11108 20.3449C1.11108 21.9246 2.19192 23.1717 3.60536 23.5874C3.68853 24.2526 3.77162 24.9177 4.02106 25.4166C4.35366 26.3311 4.93563 26.9963 5.68393 27.9109C5.93336 28.1603 6.1828 28.4928 6.43223 28.8254C7.26363 29.9063 7.7625 31.3197 7.7625 32.65V34.5623C7.7625 35.9757 8.84334 37.0565 10.2568 37.0565H11.9196C13.3331 37.0565 14.4139 35.9757 14.4139 34.5623V33.8971C16.6588 34.5623 19.153 34.7285 21.5642 34.4791C21.9799 34.3959 22.3125 33.9802 22.3125 33.5645C22.3124 32.9825 21.8967 32.65 21.3979 32.7331Z" fill="#FF1F00" fill-opacity="0.71" stroke="#FF1F00" stroke-opacity="0.71"/>
<path d="M20.3176 7.87291V5.37864C20.3176 4.87977 19.985 4.54724 19.4862 4.54724H18.6548C18.156 4.54724 17.8234 4.87984 17.8234 5.37864C17.8234 5.87744 18.156 6.21004 18.6548 6.21004V7.87291C18.156 7.87291 17.8234 8.20552 17.8234 8.70431C17.8234 9.20311 18.156 9.53572 18.6548 9.53572H20.3176C20.8165 9.53572 21.149 9.20311 21.149 8.70431C21.149 8.20552 20.8165 7.87291 20.3176 7.87291Z" fill="#FF1F00" fill-opacity="0.71" stroke="#FF1F00" stroke-opacity="0.71"/>
</svg>
