<svg width="44" height="44" viewBox="0 0 44 44" fill="none" xmlns="http://www.w3.org/2000/svg">
<path d="M36.6667 7.33333H25.6667V18.3333H36.6667V7.33333ZM7.33333 7.33333V18.3333H18.3333V7.33333H7.33333ZM18.3333 27.5H14.6667V23.8333H18.3333V20.1667H14.6667V23.8333H11V20.1667H7.33333V23.8333H11V27.5H7.33333V33H11V36.6667H14.6667V33H20.1667V36.6667H23.8333V29.3333H18.3333V27.5ZM14.6667 27.5V33H11V27.5H14.6667ZM36.6667 36.6667V25.6667H25.6667V36.6667H36.6667ZM33 11V14.6667H29.3333V11H33ZM14.6667 11V14.6667H11V11H14.6667ZM33 29.3333V33H29.3333V29.3333H33ZM36.6667 20.1667H33V23.8333H36.6667V20.1667ZM27.5 20.1667H20.1667V27.5H23.8333V23.8333H27.5V20.1667ZM23.8333 11H20.1667V18.3333H23.8333V11ZM40.3333 3.66667V11H44V3.66667C44 2.69421 43.6137 1.76158 42.9261 1.07394C42.2384 0.386308 41.3058 0 40.3333 0L33 0V3.66667H40.3333ZM3.66666 0C2.69421 0 1.76157 0.386308 1.07394 1.07394C0.386307 1.76158 0 2.69421 0 3.66667V11H3.66666V3.66667H11V0H3.66666ZM40.3333 33V40.3333H33V44H40.3333C41.3058 44 42.2384 43.6137 42.9261 42.9261C43.6137 42.2384 44 41.3058 44 40.3333V33H40.3333ZM3.66666 40.3333V33H0V40.3333C0 41.3058 0.386307 42.2384 1.07394 42.9261C1.76157 43.6137 2.69421 44 3.66666 44H11V40.3333H3.66666Z" fill="#6B677B"/>
</svg>
