<svg width="28" height="30" viewBox="0 0 28 30" fill="none" xmlns="http://www.w3.org/2000/svg">
<path d="M23 21.12C21.86 21.12 20.84 21.57 20.06 22.275L9.365 16.05C9.44 15.705 9.5 15.36 9.5 15C9.5 14.64 9.44 14.295 9.365 13.95L19.94 7.785C20.75 8.535 21.815 9 23 9C24.1935 9 25.3381 8.52589 26.182 7.68198C27.0259 6.83807 27.5 5.69347 27.5 4.5C27.5 3.30653 27.0259 2.16193 26.182 1.31802C25.3381 0.474106 24.1935 0 23 0C21.8065 0 20.6619 0.474106 19.818 1.31802C18.9741 2.16193 18.5 3.30653 18.5 4.5C18.5 4.86 18.56 5.205 18.635 5.55L8.06 11.715C7.25 10.965 6.185 10.5 5 10.5C3.80653 10.5 2.66193 10.9741 1.81802 11.818C0.974106 12.6619 0.5 13.8065 0.5 15C0.5 16.1935 0.974106 17.3381 1.81802 18.182C2.66193 19.0259 3.80653 19.5 5 19.5C6.185 19.5 7.25 19.035 8.06 18.285L18.74 24.51C18.665 24.825 18.62 25.155 18.62 25.5C18.62 27.915 20.585 29.865 23 29.865C25.415 29.865 27.38 27.915 27.38 25.5C27.38 24.3384 26.9185 23.2243 26.0971 22.4029C25.2757 21.5815 24.1616 21.12 23 21.12Z" fill="#6B677B"/>
</svg>
