<svg width="61" height="61" viewBox="0 0 61 61" fill="none" xmlns="http://www.w3.org/2000/svg">
<path d="M53.6882 60.7716H7.30993C3.42604 60.7716 0.227539 57.5731 0.227539 53.6892V7.31091C0.227539 3.42702 3.42604 0.228516 7.30993 0.228516H53.6882C57.5721 0.228516 60.7706 3.42702 60.7706 7.31091V53.6892C60.7706 57.5731 57.5721 60.7716 53.6882 60.7716Z" fill="white"/>
<path d="M53.6892 61H7.31086C3.1985 61 0 57.573 0 53.6891V7.31086C0 3.1985 3.42697 0 7.31086 0H53.6892C57.8015 0 61 3.42697 61 7.31086V53.6891C61 57.8015 57.8015 61 53.6892 61ZM7.31086 0.456931C3.65543 0.456931 0.456931 3.42697 0.456931 7.31086V53.6891C0.456931 57.3446 3.42697 60.5431 7.31086 60.5431H53.6892C57.3446 60.5431 60.5431 57.573 60.5431 53.6891V7.31086C60.5431 3.65543 57.573 0.456931 53.6892 0.456931H7.31086Z" fill="black"/>
<path d="M45.2344 37.4681C45.2344 39.2958 44.549 40.6666 43.1782 41.5805C42.0359 42.2659 40.6651 42.7228 38.8374 42.7228C37.2381 42.7228 35.8673 42.2659 34.725 41.352C33.8112 40.4382 32.8973 39.2958 32.2119 37.4681L28.328 24.4456C28.0995 24.2172 28.0995 23.9887 27.8711 23.7602C27.6426 23.5318 27.4142 23.5318 27.1857 23.5318C26.9572 23.5318 26.7288 23.7603 26.5003 23.9887C26.2718 24.2172 26.2718 24.4456 26.2718 24.9026V37.4681C26.2718 39.2958 25.5864 40.6666 24.2157 41.5805C23.0733 42.2659 21.7025 42.7228 19.8748 42.7228C18.504 42.7228 17.1333 42.2659 15.9909 41.1235C14.8486 39.9812 13.9347 38.382 13.2494 36.3258L8.22314 18.734H13.7063L19.1894 36.3258C19.1894 36.7827 19.4179 37.0112 19.6464 37.2397C19.8748 37.4681 20.1033 37.4681 20.3318 37.4681C20.5602 37.4681 21.0171 37.4681 21.0171 37.2397C21.2456 37.0112 21.2456 36.7827 21.2456 36.3258V23.5318C21.2456 21.9325 21.931 20.7902 23.3018 19.6479C24.4441 18.734 26.0434 18.2771 27.6426 18.2771C29.0134 18.2771 30.3842 18.734 31.5265 19.4194C32.6688 20.3333 33.5827 21.4756 34.0396 23.0749L38.3804 36.3258C38.6089 36.7827 38.8374 37.2396 39.0658 37.4681C39.2943 37.6966 39.2943 37.6966 39.5228 37.6966C39.9797 37.6966 40.2082 37.4681 40.2082 37.2397C40.2082 37.0112 40.4366 36.7827 40.4366 36.3258V18.734H45.6913V37.4681H45.2344Z" fill="black"/>
<path d="M52.7713 42.2659H47.5166V37.0112H52.7713V42.2659Z" fill="black"/>
<path d="M48.8904 21.0188V18.9626H47.9766V18.7341H50.0327V18.9626H49.1189V21.0188H48.8904Z" fill="black"/>
<path d="M50.2603 21.0187V18.5056H50.7172L51.4026 20.1049H51.631L52.3164 18.5056H53.0018V21.0187H52.7734V18.9625L52.088 20.5618H51.4026L50.7172 18.9625V21.0187H50.2603Z" fill="black"/>
</svg>
