<svg width="36" height="37" viewBox="0 0 36 37" fill="none" xmlns="http://www.w3.org/2000/svg">
<path d="M9.95003 11.1833L12.8334 12.8499L18.1334 3.69994L21.8834 10.1833L17.55 12.6833L26.65 15.1166L29.1 6.01661L24.7667 8.51661L21.0167 2.01661C20.1 0.416607 18.05 -0.133394 16.4667 0.79994C16.0167 1.04994 15.6334 1.41661 15.35 1.84994M14.6667 31.3333V27.9999H4.10003L7.83337 21.4999L12.1667 23.9999L9.73337 14.8999L0.616699 17.3333L4.95003 19.8333L1.20003 26.3333C0.283366 27.9333 0.833366 29.9666 2.4167 30.8833C2.8667 31.1499 3.3667 31.2833 3.90003 31.3333M29.7667 17.1666L26.8667 18.8333L32.1667 27.9999H24.6667V22.9999L18 29.6666L24.6667 36.3333V31.3333H32.1667C34.0167 31.3333 35.5 29.8499 35.5 27.9999C35.5 27.4833 35.3667 26.9666 35.1334 26.5166L29.7667 17.1666Z" fill="#FF1F00" fill-opacity="0.71"/>
</svg>
