<svg width="52" height="32" viewBox="0 0 52 32" fill="none" xmlns="http://www.w3.org/2000/svg">
<path d="M26 0.833252C23.9888 0.833252 22.0599 1.63221 20.6378 3.05436C19.2156 4.47651 18.4167 6.40536 18.4167 8.41659C18.4167 10.4278 19.2156 12.3567 20.6378 13.7788C22.0599 15.201 23.9888 15.9999 26 15.9999C28.0112 15.9999 29.9401 15.201 31.3622 13.7788C32.7844 12.3567 33.5833 10.4278 33.5833 8.41659C33.5833 6.40536 32.7844 4.47651 31.3622 3.05436C29.9401 1.63221 28.0112 0.833252 26 0.833252ZM26 5.16659C26.862 5.16659 27.6886 5.50899 28.2981 6.11849C28.9076 6.72798 29.25 7.55463 29.25 8.41659C29.25 9.27854 28.9076 10.1052 28.2981 10.7147C27.6886 11.3242 26.862 11.6666 26 11.6666C25.138 11.6666 24.3114 11.3242 23.7019 10.7147C23.0924 10.1052 22.75 9.27854 22.75 8.41659C22.75 7.55463 23.0924 6.72798 23.7019 6.11849C24.3114 5.50899 25.138 5.16659 26 5.16659ZM11.9167 7.33325C10.4801 7.33325 9.10233 7.90393 8.0865 8.91976C7.07068 9.93558 6.5 11.3133 6.5 12.7499C6.5 14.7866 7.64833 16.5416 9.295 17.4733C10.075 17.9066 10.9633 18.1666 11.9167 18.1666C12.87 18.1666 13.7583 17.9066 14.5383 17.4733C15.34 17.0183 16.0117 16.3683 16.51 15.5883C14.9283 13.5299 14.0833 11.0166 14.0833 8.41659C14.0833 8.22159 14.0833 8.00492 14.0833 7.80992C13.4333 7.50659 12.6967 7.33325 11.9167 7.33325ZM40.0833 7.33325C39.3033 7.33325 38.5667 7.50659 37.9167 7.80992C37.9167 8.00492 37.9167 8.22159 37.9167 8.41659C37.9167 11.0166 37.0717 13.5299 35.49 15.5883C35.75 15.9999 36.0317 16.3249 36.3567 16.6499C36.7033 16.9749 37.05 17.2566 37.4617 17.4733C38.2417 17.9066 39.13 18.1666 40.0833 18.1666C41.0367 18.1666 41.925 17.9066 42.705 17.4733C44.3517 16.5416 45.5 14.7866 45.5 12.7499C45.5 11.3133 44.9293 9.93558 43.9135 8.91976C42.8977 7.90393 41.5199 7.33325 40.0833 7.33325ZM26 20.3333C20.93 20.3333 10.8333 22.8683 10.8333 27.9166V31.1666H41.1667V27.9166C41.1667 22.8683 31.07 20.3333 26 20.3333ZM10.205 21.5249C6.02333 22.0233 0 24.1466 0 27.9166V31.1666H6.5V26.9849C6.5 24.7966 7.995 22.9766 10.205 21.5249ZM41.795 21.5249C44.005 22.9766 45.5 24.7966 45.5 26.9849V31.1666H52V27.9166C52 24.1466 45.9767 22.0233 41.795 21.5249ZM26 24.6666C29.315 24.6666 33.02 25.7499 35.165 26.8333H16.835C18.98 25.7499 22.685 24.6666 26 24.6666Z" fill="#6B677B"/>
</svg>
