<svg width="48" height="44" viewBox="0 0 48 44" fill="none" xmlns="http://www.w3.org/2000/svg">
<path d="M19.6667 9.43325C19.6667 5.31658 17.0667 1.63325 13.1667 0.333252V8.34992H6.66675V0.333252C2.76675 1.63325 0.166748 5.31658 0.166748 9.43325C0.166748 13.5499 2.76675 17.2333 6.66675 18.5333V42.3666C6.66675 43.2333 7.10008 43.6666 7.75008 43.6666H12.0834C12.7334 43.6666 13.1667 43.2333 13.1667 42.5833V18.7499C17.0667 17.4499 19.6667 13.7666 19.6667 9.43325ZM32.6667 11.3333C24.2167 11.5499 17.5001 18.2666 17.5001 26.4999C17.5001 34.9499 24.2167 41.6666 32.6667 41.6666C41.1167 41.6666 47.8334 34.9499 47.8334 26.4999C47.8334 18.0499 41.1167 11.3333 32.6667 11.3333ZM32.6667 37.3333C26.6001 37.3333 21.8334 32.5666 21.8334 26.4999C21.8334 20.4333 26.6001 15.6666 32.6667 15.6666C38.7334 15.6666 43.5001 20.4333 43.5001 26.4999C43.5001 32.5666 38.7334 37.3333 32.6667 37.3333ZM30.5001 17.8333V28.6666L38.3001 33.4333L40.0334 30.8333L33.7501 27.1499V17.8333H30.5001Z" fill="#6B677B"/>
</svg>
